<svg width="378" height="301" viewBox="0 0 378 301" fill="none" xmlns="http://www.w3.org/2000/svg">
<g clip-path="url(#clip0)">
<path opacity="0.1" d="M221.684 50.8675C197.766 50.0347 174.983 42.302 153.23 33.8401C131.478 25.3782 109.933 16.0021 86.5877 11.5194C71.5725 8.63585 54.3991 8.22868 42.3034 16.2908C30.6586 24.0642 26.8965 37.4455 24.875 49.8755C23.3525 59.2257 22.4581 69.0646 26.6304 77.8189C29.5241 83.897 34.6647 89.0052 38.2161 94.8463C50.5853 115.102 41.8452 140.08 28.4413 159.858C22.1588 169.138 14.86 177.996 10.0114 187.864C5.16274 197.733 2.91582 209.056 7.15836 219.132C11.3676 229.126 21.3938 236.618 32.2514 241.893C54.3104 252.609 80.2941 255.674 105.65 257.41C161.76 261.256 218.166 259.59 274.424 257.924C295.245 257.306 316.154 256.681 336.635 253.457C348.01 251.665 359.751 248.826 368.011 241.963C378.491 233.253 381.089 218.502 374.068 207.583C362.283 189.263 329.721 184.714 321.472 165.051C316.941 154.231 321.598 142.179 328.183 132.14C342.315 110.611 366 91.7222 367.249 67.1139C368.107 50.2086 356.717 33.2849 339.111 25.2857C320.659 16.8719 295.063 17.938 281.456 31.8153C267.435 46.1146 242.8 51.6004 221.684 50.8675Z" fill="#2F80ED"/>
<path d="M160.925 255.596L34.4318 254.978L21.8631 225.45L66.3063 222.219L58.5604 189.844L146.464 178.432L62.2892 149.123L69.7247 147.354L205.076 169.471L197.622 219.994L186.967 247.76L160.925 255.596Z" fill="#2F80ED"/>
<path d="M36.372 242.611C36.372 242.611 44.1328 241.367 48.7892 246.86C48.7892 246.86 45.3745 249.555 38.0277 245.824L36.372 242.611Z" fill="#2F80ED"/>
<path d="M35.559 242.489C35.559 242.489 30.6069 248.593 33.046 255.389C33.046 255.389 37.0816 253.771 37.5213 245.531L35.559 242.489Z" fill="#2F80ED"/>
<path d="M31.1095 232.454C31.1095 232.454 34.2138 226.75 46.631 234.734C46.631 234.734 44.9754 238.569 39.4911 238.258C34.0068 237.947 32.5582 235.459 31.1095 232.454Z" fill="#2F80ED"/>
<path d="M30.3075 232.043C30.3075 232.043 23.8661 231.302 23.2416 246.072C23.2416 246.072 27.3252 246.92 30.2262 242.248C33.1273 237.577 31.9373 234.956 30.3075 232.043Z" fill="#2F80ED"/>
<path d="M26.5565 220.261C26.5565 220.261 30.1782 210.207 43.3198 217.359C43.3198 217.359 40.3189 226.583 27.9017 223.681L26.5565 220.261Z" fill="#2F80ED"/>
<path d="M22.5209 205.232C22.5209 205.232 29.3504 195.075 41.4571 204.492C41.4571 204.492 37.2146 214.027 23.5557 208.845L22.5209 205.232Z" fill="#2F80ED"/>
<path d="M21.0723 190.929C21.0723 190.929 29.04 181.597 41.0285 190.929C41.0285 190.929 33.4747 199.117 21.0723 193.313V190.929Z" fill="#2F80ED"/>
<path d="M19.8306 177.037C19.8306 177.037 27.9017 167.294 39.3876 176.519C39.3876 176.519 30.2817 185.121 19.8306 179.317V177.037Z" fill="#2F80ED"/>
<path d="M20.5549 164.703C20.5549 164.703 29.0547 152.162 39.8015 160.661C39.8015 160.661 30.6956 171.44 20.5549 167.087V164.703Z" fill="#2F80ED"/>
<path d="M22.5209 150.296C22.5209 150.296 31.5234 137.859 41.9745 147.394C41.9745 147.394 31.3164 158.173 22.5209 152.577V150.296Z" fill="#2F80ED"/>
<path d="M25.5218 137.419C25.5218 137.419 36.1799 125.729 45.478 130.385C45.478 130.385 34.3727 142.801 25.0561 140.52L25.5218 137.419Z" fill="#2F80ED"/>
<path d="M29.2469 125.211C29.2469 125.211 41.5458 110.893 48.7005 115.675C48.7005 115.675 39.6389 126.78 28.3748 127.891L29.2469 125.211Z" fill="#2F80ED"/>
<path d="M34.624 111.052C34.624 111.052 45.3892 99.3623 53.2535 102.264C53.2535 102.264 44.0441 114.391 33.179 114.702L34.624 111.052Z" fill="#2F80ED"/>
<path d="M39.4911 97.8076C39.4911 97.8076 51.3909 86.614 56.5647 88.5832C56.5647 88.5832 47.9762 101.021 38.9737 100.295L39.4911 97.8076Z" fill="#2F80ED"/>
<path d="M44.251 85.5775C44.251 85.5775 54.4952 72.2036 60.0866 73.24C60.0866 73.24 53.8744 85.1629 44.251 86.936V85.5775Z" fill="#2F80ED"/>
<path d="M49.4174 69.0868C49.4174 69.0868 58.4717 58.8371 63.3646 58.8593C63.3646 58.8593 56.2173 72.5552 49.0442 72.4294L49.4174 69.0868Z" fill="#2F80ED"/>
<path d="M52.4774 58.1078L61.2249 36.757C61.2249 36.757 61.661 56.0571 51.3651 62.0686L52.4774 58.1078Z" fill="#2F80ED"/>
<path d="M56.0289 34.562C56.0289 34.562 57.4776 16.7313 56.5463 15.2803C56.5463 15.2803 62.7992 30.1052 55.9698 42.439L56.0289 34.562Z" fill="#2F80ED"/>
<path d="M26.2165 220.024C26.2165 220.024 17.1475 214.393 11.2752 228.167C11.2752 228.167 19.3464 233.534 27.2845 223.536L26.2165 220.024Z" fill="#2F80ED"/>
<path d="M22.229 204.658C22.229 204.658 11.1053 199.576 5.70969 213.957C5.70969 213.957 14.3019 219.879 23.2416 208.293L22.229 204.658Z" fill="#2F80ED"/>
<path d="M20.5549 191.784C20.5549 191.784 12.5872 182.452 0.598694 191.784C0.598694 191.784 8.15248 199.972 20.5549 194.168V191.784Z" fill="#2F80ED"/>
<path d="M19.5571 177.037C19.5571 177.037 11.4859 167.294 0 176.519C0 176.519 9.10594 185.121 19.5571 179.317V177.037Z" fill="#2F80ED"/>
<path d="M20.5549 165.058C20.5549 165.058 14.8932 151.011 2.58691 157.052C2.58691 157.052 9.23898 169.508 20.0523 167.39L20.5549 165.058Z" fill="#2F80ED"/>
<path d="M23.2342 150.226C23.2342 150.226 17.6058 135.934 5.12579 142.56C5.12579 142.56 12.7683 155.66 22.6799 152.432L23.2342 150.226Z" fill="#2F80ED"/>
<path d="M26.7228 137.489C26.7228 137.489 24.5055 121.82 14.1578 120.417C14.1578 120.417 16.353 136.941 25.3296 140.313L26.7228 137.489Z" fill="#2F80ED"/>
<path d="M29.5093 125.24C29.5093 125.24 28.6446 106.362 20.0893 105.703C20.0893 105.703 20.3775 120.032 28.5448 127.913L29.5093 125.24Z" fill="#2F80ED"/>
<path d="M35.5109 110.523C35.5109 110.523 32.961 94.8242 24.7937 92.9067C24.7937 92.9067 25.8063 108.109 34.7016 114.376L35.5109 110.523Z" fill="#2F80ED"/>
<path d="M40.4593 97.9372C40.4593 97.9372 40.3743 81.5835 35.3853 79.1812C35.3853 79.1812 32.2921 93.9876 39.0144 100.025L40.4593 97.9372Z" fill="#2F80ED"/>
<path d="M44.6317 85.3924C44.6317 85.3924 43.9332 68.5538 38.7668 66.181C38.7668 66.181 37.0003 79.5068 43.8593 86.4954L44.6317 85.3924Z" fill="#2F80ED"/>
<path d="M50.1381 70.4306C50.1381 70.4306 50.1085 56.7346 46.4203 53.5216C46.4203 53.5216 42.7543 68.5242 48.2127 73.1846L50.1381 70.4306Z" fill="#2F80ED"/>
<path d="M52.045 57.4342L48.4566 34.6396C48.4566 34.6396 43.5821 53.318 52.215 61.5503L52.045 57.4342Z" fill="#2F80ED"/>
<path d="M52.7435 34.7767C52.7435 34.7767 43.5341 19.452 43.7226 17.7493C43.7226 17.7493 44.7019 33.8105 56.2876 41.8097L52.7435 34.7767Z" fill="#2F80ED"/>
<path d="M53.8226 30.2496C53.8226 30.2496 45.1306 8.48413 41.1985 6.72217C41.1985 6.72217 53.6157 13.0445 54.547 29.6277L53.8226 30.2496Z" fill="#2F80ED"/>
<path d="M48.9999 72.559L48.4049 72.3776C55.7406 48.4171 57.5699 33.1406 53.5602 29.3094L53.9852 28.8578C58.2388 32.8999 56.513 48.0099 48.9999 72.559Z" fill="#444053"/>
<path d="M28.7998 128.661L27.9202 128.346C28.7 126.151 29.5389 123.922 30.4184 121.727C38.0757 102.612 44.5947 84.8298 48.7745 71.1783L49.5395 70.8081C45.3523 84.4856 38.9479 102.949 31.2832 122.09C30.4074 124.245 29.5722 126.462 28.7998 128.661Z" fill="#444053"/>
<path d="M47.3073 260.541C47.189 260.412 35.3003 247.001 27.0111 224.106C22.1541 210.703 19.4511 196.612 19.0028 182.36C18.4336 164.544 22.1662 144.651 28.5596 126.58L29.2543 127.395C14.9007 167.953 20.6029 202.707 28.1678 223.636C36.3683 246.324 48.124 259.586 48.2386 259.72L47.3073 260.541Z" fill="#444053"/>
<path d="M233.092 232.069C233.092 232.069 224.714 242.311 231.366 257.795L164.476 286.852L158.057 288.2L155.1 275.244L157.077 258.894V249.958L233.092 232.069Z" fill="#D5D6DB"/>
<path d="M21.8631 225.45L114.445 208.545L237.12 228.119L160.925 255.596L21.8631 225.45Z" fill="#2F80ED"/>
<path d="M21.8631 225.45L114.445 208.545L237.12 228.119L160.925 255.596L21.8631 225.45Z" fill="#2F80ED"/>
<path d="M21.8631 225.446C21.8631 225.446 13.2044 241.878 23.1825 257.054L160.474 286.852C160.474 286.852 151.952 273.764 160.913 255.596L21.8631 225.446Z" fill="#2F80ED"/>
<path opacity="0.1" d="M21.8631 225.446C21.8631 225.446 13.2044 241.878 23.1825 257.054L160.474 286.852C160.474 286.852 151.952 273.764 160.913 255.596L21.8631 225.446Z" fill="black"/>
<path opacity="0.1" d="M25.9541 231.143C25.9541 231.143 21.0057 243.166 25.9541 250.947V231.143Z" fill="black"/>
<path d="M160.474 286.853L237.12 254.093C237.12 254.093 241.407 255.019 238.636 258.165C235.864 261.311 161.952 289.999 161.952 289.999L23.1825 257.055L160.474 286.853Z" fill="#2F80ED"/>
<path opacity="0.1" d="M160.474 286.853L237.12 254.093C237.12 254.093 241.407 255.019 238.636 258.165C235.864 261.311 161.952 289.999 161.952 289.999L23.1825 257.055L160.474 286.853Z" fill="black"/>
<path opacity="0.1" d="M154.191 258.905C154.191 258.905 146.8 267.789 154.191 281.115V258.905Z" fill="black"/>
<path opacity="0.1" d="M189.975 258.755L156.822 269.834L156.939 270.185L190.092 259.106L189.975 258.755Z" fill="black"/>
<path opacity="0.1" d="M196.615 257.653L156.811 272.813L156.943 273.159L196.746 257.999L196.615 257.653Z" fill="black"/>
<path opacity="0.1" d="M202.713 257.6L157.033 276.327L157.173 276.67L202.853 257.942L202.713 257.6Z" fill="black"/>
<path opacity="0.1" d="M209.345 255.996L157.567 279.424L157.719 279.761L209.497 256.333L209.345 255.996Z" fill="black"/>
<path opacity="0.1" d="M214.916 256.004L157.977 280.932L158.125 281.271L215.064 256.343L214.916 256.004Z" fill="black"/>
<path opacity="0.1" d="M227.102 253.931L158.835 283.464L158.982 283.804L227.249 254.27L227.102 253.931Z" fill="black"/>
<path opacity="0.3" d="M56.258 227.257L121.3 213.561L160.925 221.149L107.627 238.361L56.258 227.257Z" fill="white"/>
<path d="M237.12 228.119C237.12 228.119 240.483 229.478 238.51 231.576C236.536 233.675 160.913 255.596 160.913 255.596L237.12 228.119Z" fill="#2F80ED"/>
<path d="M269.786 196.467C269.786 196.467 261.411 206.705 268.064 222.193L201.173 251.25L194.754 252.605L191.798 239.65L193.804 223.303V214.356L269.786 196.467Z" fill="#D5D6DB"/>
<path d="M58.5604 189.844L151.139 172.943L273.818 192.517L197.622 219.994L58.5604 189.844Z" fill="#3A3768"/>
<path d="M58.5456 189.844C58.5456 189.844 49.8831 206.276 59.8612 221.452L197.152 251.25C197.152 251.25 188.634 238.15 197.607 219.99L58.5456 189.844Z" fill="#3A3768"/>
<path opacity="0.1" d="M58.5456 189.844C58.5456 189.844 49.8831 206.276 59.8612 221.452L197.152 251.25C197.152 251.25 188.634 238.15 197.607 219.99L154.191 210.577L58.5456 189.844Z" fill="black"/>
<path opacity="0.1" d="M62.6477 195.541C62.6477 195.541 57.703 207.56 62.6477 215.345V195.541Z" fill="black"/>
<path d="M197.167 251.25L273.818 218.491C273.818 218.491 278.101 219.416 275.329 222.563C272.557 225.709 198.645 254.397 198.645 254.397L59.876 221.452L197.167 251.25Z" fill="#3A3768"/>
<path opacity="0.1" d="M197.167 251.25L273.818 218.491C273.818 218.491 278.101 219.416 275.329 222.563C272.557 225.709 198.645 254.397 198.645 254.397L59.876 221.452L197.167 251.25Z" fill="black"/>
<path opacity="0.1" d="M190.885 223.303C190.885 223.303 183.494 232.187 190.885 245.513V223.303Z" fill="black"/>
<path opacity="0.1" d="M226.671 223.157L193.518 234.236L193.635 234.587L226.788 223.508L226.671 223.157Z" fill="black"/>
<path opacity="0.1" d="M233.316 222.053L193.512 237.213L193.644 237.559L233.447 222.399L233.316 222.053Z" fill="black"/>
<path opacity="0.1" d="M239.409 221.995L193.729 240.722L193.869 241.065L239.549 222.337L239.409 221.995Z" fill="black"/>
<path opacity="0.1" d="M246.045 220.391L194.267 243.819L194.419 244.157L246.197 220.729L246.045 220.391Z" fill="black"/>
<path opacity="0.1" d="M251.611 220.394L194.671 245.323L194.819 245.662L251.759 220.734L251.611 220.394Z" fill="black"/>
<path opacity="0.1" d="M263.8 218.321L195.533 247.855L195.679 248.195L263.946 218.661L263.8 218.321Z" fill="black"/>
<path opacity="0.45" d="M92.9552 191.654L157.998 177.958L197.622 185.547L144.324 202.759L92.9552 191.654Z" fill="white"/>
<path d="M273.818 192.517C273.818 192.517 277.177 193.875 275.207 195.971C273.237 198.066 197.622 219.99 197.622 219.99L273.818 192.517Z" fill="#3A3768"/>
<path d="M273.26 155.738C273.26 155.738 264.882 174.124 271.534 189.608L204.643 210.522L198.239 211.88L195.282 198.924L197.26 182.574V173.628L273.26 155.738Z" fill="#D5D6DB"/>
<path d="M62.0453 149.119L154.627 132.214L277.306 151.788L201.107 179.265L62.0453 149.119Z" fill="#2F80ED"/>
<path d="M62.0453 149.116C62.0453 149.116 53.3717 165.547 63.3498 180.724L200.641 210.522C200.641 210.522 192.119 197.422 201.092 179.265L62.0453 149.116Z" fill="#2F80ED"/>
<path opacity="0.1" d="M62.0453 149.116C62.0453 149.116 53.3717 165.547 63.3498 180.724L200.641 210.522C200.641 210.522 192.119 197.422 201.092 179.265L62.0453 149.116Z" fill="black"/>
<path opacity="0.1" d="M66.1363 154.812C66.1363 154.812 61.1879 166.835 66.1363 174.616V154.812Z" fill="black"/>
<path d="M200.656 210.522L277.302 185.906C277.302 185.906 281.589 186.831 278.818 189.978C276.046 193.124 202.134 213.668 202.134 213.668L63.3646 180.724L200.656 210.522Z" fill="#2F80ED"/>
<path opacity="0.1" d="M200.656 210.522L277.302 185.906C277.302 185.906 281.589 186.831 278.818 189.978C276.046 193.124 202.134 213.668 202.134 213.668L63.3646 180.724L200.656 210.522Z" fill="black"/>
<path opacity="0.1" d="M194.373 182.574C194.373 182.574 186.982 191.458 194.373 204.784V182.574Z" fill="black"/>
<path opacity="0.1" d="M230.161 182.428L197.008 193.506L197.125 193.857L230.278 182.779L230.161 182.428Z" fill="black"/>
<path opacity="0.1" d="M236.803 181.325L197 196.486L197.131 196.832L236.935 181.671L236.803 181.325Z" fill="black"/>
<path opacity="0.1" d="M242.893 181.269L197.213 199.996L197.353 200.339L243.033 181.611L242.893 181.269Z" fill="black"/>
<path opacity="0.1" d="M249.534 179.662L197.755 203.09L197.908 203.427L249.686 180L249.534 179.662Z" fill="black"/>
<path opacity="0.1" d="M255.102 179.669L198.162 204.598L198.31 204.937L255.25 180.008L255.102 179.669Z" fill="black"/>
<path opacity="0.1" d="M267.289 177.598L199.022 207.132L199.169 207.472L267.436 177.938L267.289 177.598Z" fill="black"/>
<path opacity="0.3" d="M96.4402 150.926L161.483 137.23L201.107 144.818L147.809 162.031L96.4402 150.926Z" fill="white"/>
<path d="M277.302 151.788C277.302 151.788 280.665 153.147 278.692 155.246C276.719 157.344 201.107 179.265 201.107 179.265L277.302 151.788Z" fill="#2F80ED"/>
<path d="M114.719 39.4222C114.719 39.4222 100.675 38.5745 102.316 48.443C102.316 48.443 101.987 50.1864 103.565 50.9786C103.565 50.9786 103.591 50.2382 105.007 50.4937C105.512 50.5806 106.025 50.6054 106.537 50.5677C107.226 50.5204 107.881 50.2502 108.403 49.7978C108.403 49.7978 112.353 48.1616 113.891 41.6912C113.891 41.6912 115.029 40.2809 114.999 39.9182L112.62 40.9324C112.62 40.9324 113.429 42.6462 112.793 44.0714C112.793 44.0714 112.716 40.9953 112.257 41.0657C112.165 41.0657 111.027 41.6616 111.027 41.6616C111.027 41.6616 112.42 44.6488 111.367 46.818C111.367 46.818 111.766 43.1386 110.591 41.8763L108.92 42.8535C108.92 42.8535 110.55 45.937 109.445 48.4541C109.445 48.4541 109.73 44.5933 108.569 43.0904L107.054 44.275C107.054 44.275 108.588 47.314 107.653 49.4017C107.653 49.4017 107.531 44.9079 106.729 44.5674C106.729 44.5674 105.402 45.7371 105.202 46.2183C105.202 46.2183 106.252 48.4393 105.598 49.5905C105.598 49.5905 105.202 46.5959 104.859 46.5811C104.859 46.5811 103.539 48.5651 103.403 49.9125C103.467 48.6564 103.858 47.4389 104.537 46.3812C103.777 46.5253 103.075 46.8895 102.519 47.4287C102.519 47.4287 102.723 46.0258 104.866 45.9037C104.866 45.9037 105.956 44.3971 106.248 44.3083C106.248 44.3083 104.116 44.1269 102.826 44.7006C102.826 44.7006 103.964 43.3792 106.636 43.9603L108.115 42.7388C108.115 42.7388 105.313 42.3686 104.123 42.7795C104.123 42.7795 105.494 41.6098 108.517 42.4612L110.147 41.4876C110.147 41.4876 107.756 40.9731 106.333 41.1582C106.333 41.1582 107.834 40.3475 110.624 41.2248L111.784 40.7029C111.784 40.7029 110.036 40.3587 109.523 40.3031C109.009 40.2476 108.983 40.1069 108.983 40.1069C110.093 39.9244 111.231 40.0525 112.272 40.4771C112.272 40.4771 114.767 39.5776 114.719 39.4222Z" fill="#2F80ED"/>
<path opacity="0.1" d="M312.285 79.9844C312.285 79.9844 298.242 79.1367 299.883 89.0052C299.883 89.0052 299.554 90.7487 301.132 91.5408C301.132 91.5408 301.158 90.8005 302.573 91.0559C303.078 91.1408 303.592 91.1656 304.103 91.1299C304.786 91.0796 305.434 90.8095 305.951 90.36C305.951 90.36 309.905 88.7239 311.439 82.2535C311.439 82.2535 312.577 80.8432 312.547 80.4804L310.175 81.4947C310.175 81.4947 310.984 83.2085 310.348 84.6336C310.348 84.6336 310.271 81.5576 309.816 81.6279C309.724 81.6279 308.582 82.2239 308.582 82.2239C308.582 82.2239 309.975 85.2111 308.926 87.3802C308.926 87.3802 309.325 83.7008 308.146 82.4386L306.475 83.4158C306.475 83.4158 308.105 86.4992 307 89.0163C307 89.0163 307.285 85.1555 306.124 83.6527L304.613 84.8372C304.613 84.8372 306.143 87.8762 305.208 89.9639C305.208 89.9639 305.086 85.4702 304.284 85.1296C304.284 85.1296 302.961 86.2993 302.758 86.7805C302.758 86.7805 303.807 89.0015 303.157 90.1527C303.157 90.1527 302.758 87.1581 302.418 87.1433C302.418 87.1433 301.098 89.1274 300.962 90.4748C301.026 89.2181 301.418 88.0003 302.1 86.9434C301.339 87.0879 300.636 87.452 300.078 87.991C300.078 87.991 300.285 86.5881 302.425 86.4659C302.425 86.4659 303.515 84.9594 303.807 84.8668C303.807 84.8668 301.679 84.6891 300.385 85.2629C300.385 85.2629 301.523 83.9414 304.195 84.5226L305.674 83.301C305.674 83.301 302.869 82.9309 301.682 83.3418C301.682 83.3418 303.05 82.1721 306.076 83.0234L307.702 82.0499C307.702 82.0499 305.311 81.5354 303.889 81.7205C303.889 81.7205 305.389 80.9098 308.179 81.7871L309.343 81.2652C309.343 81.2652 307.592 80.9209 307.078 80.8654C306.564 80.8099 306.538 80.6692 306.538 80.6692C307.648 80.4844 308.787 80.6125 309.827 81.0394C309.827 81.0394 312.329 80.1399 312.285 79.9844Z" fill="#2F80ED"/>
<path opacity="0.1" d="M138.37 100.388C138.37 100.388 132.25 87.68 124.46 93.9431C124.46 93.9431 122.779 94.5058 122.86 96.2715C122.86 96.2715 123.507 95.9346 123.969 97.2968C124.141 97.7783 124.369 98.238 124.649 98.6664C125.027 99.2471 125.583 99.6889 126.234 99.9249C126.234 99.9249 129.586 102.583 135.976 100.769C135.976 100.769 137.761 101.076 138.053 100.861L136.013 99.2809C136.013 99.2809 134.904 100.824 133.359 100.961C133.359 100.961 136.005 99.3956 135.721 99.0329C135.662 98.9588 134.612 98.2444 134.612 98.2444C134.612 98.2444 132.687 100.921 130.284 101.058C130.284 101.058 133.684 99.614 134.209 97.9668L132.546 96.9822C132.546 96.9822 130.65 99.9138 127.919 100.173C127.919 100.173 131.423 98.5405 132.165 96.7934L130.399 96.0531C130.399 96.0531 128.496 98.8737 126.219 99.0773C126.219 99.0773 130.077 96.7786 129.981 95.9087C129.981 95.9087 128.315 95.3238 127.797 95.3794C127.797 95.3794 126.386 97.3745 125.055 97.3745C125.055 97.3745 127.468 95.5644 127.321 95.272C127.321 95.272 124.948 95.0869 123.699 95.6422C124.824 95.0818 126.077 94.8266 127.332 94.9019C126.834 94.3073 126.174 93.8712 125.432 93.647C125.432 93.647 126.755 93.1436 127.904 94.9537C127.904 94.9537 129.752 95.1721 129.97 95.3831C129.97 95.3831 129.087 93.436 127.96 92.5884C127.96 92.5884 129.667 92.9326 130.447 95.5496L132.239 96.2604C132.239 96.2604 131.208 93.6248 130.259 92.7919C130.259 92.7919 131.944 93.4175 132.679 96.4936L134.32 97.4412C134.32 97.4412 133.607 95.098 132.749 93.9468C132.749 93.9468 134.187 94.8648 134.782 97.7299L135.806 98.4924C135.806 98.4924 135.251 96.7934 135.067 96.3196C134.882 95.8458 134.974 95.7495 134.974 95.7495C135.677 96.6284 136.122 97.6857 136.26 98.8034C136.26 98.8034 138.237 100.499 138.37 100.388Z" fill="#2F80ED"/>
<path opacity="0.1" d="M280.2 62.0316C280.2 62.0316 274.084 49.3239 266.29 55.5871C266.29 55.5871 264.612 56.1497 264.689 57.9154C264.689 57.9154 265.34 57.5822 265.798 58.9407C265.97 59.4242 266.2 59.8853 266.482 60.314C266.859 60.8937 267.414 61.3342 268.063 61.5689C268.063 61.5689 271.419 64.2266 277.805 62.4165C277.805 62.4165 279.59 62.7201 279.886 62.5054L277.857 60.9211C277.857 60.9211 276.748 62.4684 275.207 62.6053C275.207 62.6053 277.849 61.0358 277.565 60.6731C277.506 60.599 276.456 59.8846 276.456 59.8846C276.456 59.8846 274.534 62.5609 272.129 62.6979C272.129 62.6979 275.532 61.2542 276.057 59.6107L274.368 58.6335C274.368 58.6335 272.476 61.5615 269.741 61.8243C269.741 61.8243 273.245 60.1882 273.991 58.441L272.221 57.7007C272.221 57.7007 270.318 60.525 268.045 60.7249C268.045 60.7249 271.9 58.4262 271.803 57.56C271.803 57.56 270.14 56.9715 269.623 57.0307C269.623 57.0307 268.211 59.0222 266.877 59.0222C266.877 59.0222 269.294 57.2121 269.146 56.9196C269.146 56.9196 266.774 56.7346 265.521 57.2898C266.646 56.7293 267.899 56.474 269.154 56.5495C268.658 55.9546 267.999 55.5183 267.258 55.2946C267.258 55.2946 268.581 54.7912 269.73 56.6013C269.73 56.6013 271.578 56.8234 271.796 57.0344C271.796 57.0344 270.913 55.0836 269.782 54.236C269.782 54.236 271.489 54.5839 272.269 57.2158L274.065 57.9265C274.065 57.9265 273.034 55.2872 272.084 54.4544C272.084 54.4544 273.769 55.0799 274.501 58.156L276.146 59.1036C276.146 59.1036 275.429 56.7642 274.571 55.6093C274.571 55.6093 276.013 56.5273 276.604 59.3923L277.628 60.1548C277.628 60.1548 277.077 58.4558 276.889 57.982C276.7 57.5082 276.796 57.4157 276.796 57.4157C277.497 58.2953 277.941 59.3524 278.079 60.4695C278.079 60.4695 280.085 62.15 280.2 62.0316Z" fill="#2F80ED"/>
<path opacity="0.1" d="M299.746 124.889C299.746 124.889 293.63 112.177 285.825 118.44C285.825 118.44 284.147 119.003 284.224 120.769C284.224 120.769 284.875 120.436 285.333 121.794C285.504 122.277 285.732 122.739 286.013 123.167C286.39 123.747 286.945 124.188 287.595 124.422C287.595 124.422 290.95 127.084 297.34 125.27C297.34 125.27 299.121 125.577 299.417 125.359L297.377 123.778C297.377 123.778 296.268 125.325 294.724 125.462C294.724 125.462 297.366 123.893 297.081 123.53C297.022 123.456 295.973 122.742 295.973 122.742C295.973 122.742 294.051 125.418 291.645 125.559C291.645 125.559 295.049 124.111 295.574 122.468L293.907 121.483C293.907 121.483 292.015 124.415 289.28 124.674C289.28 124.674 292.783 123.038 293.53 121.291L291.76 120.55C291.76 120.55 289.856 123.371 287.584 123.575C287.584 123.575 291.442 121.276 291.346 120.406C291.346 120.406 289.679 119.817 289.162 119.877C289.162 119.877 287.75 121.868 286.416 121.868C286.416 121.868 288.833 120.058 288.685 119.766C288.685 119.766 286.312 119.581 285.06 120.136C286.186 119.576 287.44 119.32 288.696 119.395C288.199 118.8 287.539 118.363 286.796 118.141C286.796 118.141 288.119 117.633 289.269 119.447C289.269 119.447 291.117 119.666 291.335 119.877C291.335 119.877 290.451 117.93 289.324 117.078C289.324 117.078 291.032 117.426 291.811 120.058L293.604 120.769C293.604 120.769 292.573 118.13 291.623 117.3C291.623 117.3 293.308 117.922 294.04 121.002L295.684 121.946C295.684 121.946 294.967 119.606 294.11 118.452C294.11 118.452 295.551 119.37 296.146 122.238L297.17 122.979C297.17 122.979 296.616 121.28 296.431 120.806C296.246 120.332 296.339 120.239 296.339 120.239C297.041 121.118 297.485 122.176 297.621 123.293C297.621 123.293 299.631 125 299.746 124.889Z" fill="#2F80ED"/>
<path opacity="0.1" d="M74.6325 290.265C79.3248 290.265 83.1287 289.839 83.1287 289.314C83.1287 288.789 79.3248 288.363 74.6325 288.363C69.9402 288.363 66.1363 288.789 66.1363 289.314C66.1363 289.839 69.9402 290.265 74.6325 290.265Z" fill="#2F80ED"/>
<path opacity="0.1" d="M18.9362 274.097C23.6285 274.097 27.4324 273.671 27.4324 273.145C27.4324 272.62 23.6285 272.194 18.9362 272.194C14.2439 272.194 10.4401 272.62 10.4401 273.145C10.4401 273.671 14.2439 274.097 18.9362 274.097Z" fill="#2F80ED"/>
<path opacity="0.1" d="M117.087 301.004C121.78 301.004 125.584 300.578 125.584 300.052C125.584 299.527 121.78 299.101 117.087 299.101C112.395 299.101 108.591 299.527 108.591 300.052C108.591 300.578 112.395 301.004 117.087 301.004Z" fill="#2F80ED"/>
<path opacity="0.1" d="M334.647 277.613C339.339 277.613 343.143 277.187 343.143 276.662C343.143 276.136 339.339 275.711 334.647 275.711C329.955 275.711 326.151 276.136 326.151 276.662C326.151 277.187 329.955 277.613 334.647 277.613Z" fill="#2F80ED"/>
<path opacity="0.1" d="M263.947 272.997C268.639 272.997 272.443 272.571 272.443 272.046C272.443 271.521 268.639 271.095 263.947 271.095C259.254 271.095 255.45 271.521 255.45 272.046C255.45 272.571 259.254 272.997 263.947 272.997Z" fill="#2F80ED"/>
<path opacity="0.1" d="M218.21 295.511C223.759 295.511 228.258 294.737 228.258 293.782C228.258 292.827 223.759 292.053 218.21 292.053C212.66 292.053 208.162 292.827 208.162 293.782C208.162 294.737 212.66 295.511 218.21 295.511Z" fill="#2F80ED"/>
<path d="M222.693 276.407C222.693 276.407 208.701 283.647 215.93 292.175C215.93 292.175 216.61 294.026 218.576 293.897C218.576 293.897 218.184 293.179 219.684 292.605C220.218 292.398 220.726 292.128 221.196 291.802C221.831 291.362 222.306 290.726 222.549 289.991C222.549 289.991 225.409 286.157 223.192 279.061C223.192 279.061 223.48 277.054 223.229 276.729L221.529 279.064C221.529 279.064 223.284 280.245 223.487 281.981C223.487 281.981 221.639 279.068 221.27 279.39C221.189 279.457 220.427 280.667 220.427 280.667C220.427 280.667 223.472 282.736 223.698 285.424C223.698 285.424 221.983 281.659 220.132 281.122L219.071 283.018C219.071 283.018 222.397 285.046 222.767 288.096C222.767 288.096 220.834 284.228 218.86 283.447L218.081 285.45C218.081 285.45 221.288 287.493 221.584 290.032C221.584 290.032 218.901 285.786 217.936 285.92C217.936 285.92 217.33 287.8 217.412 288.381C217.412 288.381 219.677 289.899 219.718 291.391C219.718 291.391 217.626 288.744 217.305 288.918C217.305 288.918 217.171 291.579 217.815 292.964C217.815 292.964 216.706 290.987 216.887 288.918C216.239 289.492 215.772 290.244 215.545 291.08C215.545 291.08 214.943 289.618 216.928 288.27C216.928 288.27 217.116 286.201 217.345 285.946C217.345 285.946 215.198 286.997 214.285 288.285C214.285 288.285 214.622 286.364 217.534 285.409L218.273 283.38C218.273 283.38 215.361 284.617 214.463 285.705C214.463 285.705 215.109 283.799 218.502 282.884L219.507 281.034C219.507 281.034 216.92 281.907 215.656 282.884C215.656 282.884 216.636 281.245 219.818 280.489L220.634 279.323C220.634 279.323 218.757 279.993 218.232 280.234C217.707 280.475 217.604 280.356 217.604 280.356C218.563 279.544 219.728 279.013 220.971 278.824C220.971 278.824 222.822 276.532 222.693 276.407Z" fill="#2F80ED"/>
<path d="M264.22 139.658C261.803 133.08 248.499 132.462 242.727 134.139C238.624 135.335 229.977 136.682 225.357 137.359L225.058 137.074C225.657 136.897 225.671 136.46 225.597 135.812C225.554 134.958 225.567 134.103 225.634 133.251C228.465 134.132 230.986 132.048 230.986 132.048C234.312 130.567 233.417 124.23 234.053 122.497C234.53 121.202 235.043 113.569 235.273 109.764H235.321L235.346 108.487C235.38 107.935 235.394 107.613 235.394 107.613C235.394 107.613 235.72 98.3074 236.355 96.4232C236.947 94.6909 237.427 85.9625 237.501 84.5781C237.501 84.4596 237.501 84.3967 237.501 84.3967L237.453 83.5898C237.486 83.0012 237.501 82.346 237.497 81.6575C237.497 78.4926 237.168 74.506 237.128 73.8619C237.128 73.7694 237.128 73.6583 237.128 73.5251C237.154 72.174 236.984 65.4075 231.237 62.8496C229.119 61.902 226.573 60.773 224.108 59.6737C223.473 54.1768 222.02 48.7095 222.146 43.1719C222.146 42.339 222.22 41.5062 222.301 40.677C222.301 40.9176 222.275 41.1619 222.271 41.4173C222.271 41.9541 222.271 42.4945 222.271 43.0312C222.489 36.1055 225.102 29.1428 224.858 22.3651C224.836 23.0277 224.788 23.694 224.725 24.3603C224.853 22.0678 224.613 19.7697 224.016 17.553C223.794 16.772 223.495 15.9651 222.855 15.4431C222.251 15.0228 221.558 14.7479 220.83 14.6399C219.081 14.1915 217.305 13.8601 215.512 13.6479C215.24 12.8127 214.836 12.0266 214.315 11.3195C210.568 6.1669 205.017 1.32519 198.453 0.214711C195.161 -0.34053 191.373 0.122171 189.133 2.4801C188.899 2.68723 188.679 2.90983 188.475 3.14639C187.27 4.58631 186.753 6.47784 185.519 7.91406C185.437 8.0103 185.345 8.09914 185.256 8.19168C182.839 10.3571 179.074 10.8087 176.387 12.7521C175.914 13.1009 175.47 13.4884 175.06 13.9107C173.978 14.9852 173.007 16.1672 172.163 17.4383C170.954 19.141 169.713 20.9141 169.328 22.9463C168.556 27.0181 171.324 30.8788 171.838 34.9765C172.983 44.1454 162.854 52.2815 164.772 61.3283C165.284 63.5508 166.414 65.5825 168.031 67.1879C164.081 70.7711 160.718 74.2469 160.718 74.2469V74.4542H160.093L160.156 75.1945H160.093L160.437 79.2108L160.093 85.0593C160.093 85.0593 160.093 85.1222 160.093 85.2407V85.2703V85.4295C160.093 85.4295 160.093 85.4924 160.093 85.6108H160.115C160.23 87.7541 160.684 95.4608 161.224 97.0858C161.86 98.9699 162.181 108.276 162.181 108.276C162.181 108.276 162.883 121.428 163.526 123.167C164.169 124.907 163.257 131.226 166.594 132.717C167.57 133.468 168.726 133.948 169.946 134.109C169.776 135.494 169.883 136.497 170.433 136.811C170.669 136.95 170.936 137.027 171.209 137.034C170.983 137.37 170.782 137.723 170.607 138.089C169.282 137.95 167.981 137.643 166.734 137.174C163.149 135.694 151.253 132.362 147.798 134.705C144.342 137.048 136.027 139.173 139.867 148.605C143.707 158.037 145.495 158.273 145.495 158.273C146.677 159.133 147.714 160.176 148.567 161.364C149.72 163.1 160.463 167.072 163.149 167.072C164.291 167.055 165.433 167.111 166.568 167.242C166.568 167.242 163.652 169.804 164.04 171.292C164.428 172.78 163.153 184.692 163.153 184.692C163.153 184.692 166.11 187.675 167.373 183.763L167.418 183.822C167.654 184.144 168.933 185.599 171.339 183.763C172.323 183.014 173.369 182.351 174.465 181.779L186.114 180.128C187.328 180.052 188.546 180.043 189.761 180.102C191.609 180.254 193.424 179.158 194.566 178.31C196.979 179.228 199.691 180.231 200.981 180.598C203.598 181.338 215.623 184.57 218.435 183.559C219.02 183.326 219.54 182.955 219.951 182.478L222.634 182.563L221.377 182.815C221.377 182.815 223.824 182.856 227.15 182.9L227.009 182.982L231.182 182.945C237.287 183 244.146 183.019 245.047 182.815C246.459 182.5 253.795 182.723 255.957 182.815H256.559C256.559 182.815 264.619 181.205 261.293 173.013C258.736 166.72 250.875 164.892 247.387 164.388C248.37 164.192 249.216 164.041 249.778 163.952C252.213 163.582 256.944 161.361 257.328 160.602C257.712 159.843 261.678 157.64 262.701 156.386C263.725 155.131 266.648 146.236 264.22 139.658ZM197.459 158.066L197.064 158.196L196.798 158.285L196.288 158.788C195.881 158.514 195.445 158.225 194.991 157.929C195.793 157.977 196.617 158.025 197.459 158.066Z" fill="url(#paint0_linear)"/>
<path d="M221.022 119.036C221.022 119.036 226.677 133.843 229.892 132.362C233.107 130.881 232.235 124.589 232.848 122.864C233.462 121.139 234.142 108.057 234.142 108.057C234.142 108.057 234.452 98.8033 235.066 96.9303C235.635 95.2091 236.097 86.5288 236.174 85.1629C236.174 85.0445 236.174 84.9815 236.174 84.9815L235.564 74.2469L232.113 73.3844L224.108 76.3457L222.999 82.6865L222.567 85.1629L222.382 86.2179L221.022 119.036Z" fill="#BE6F72"/>
<path opacity="0.1" d="M222.885 116.556C222.885 116.556 228.28 120.98 229.907 121.368C231.533 121.757 232.53 125.207 232.53 125.207" fill="black"/>
<path d="M176.805 119.684C176.805 119.684 171.15 134.491 167.935 133.01C164.72 131.529 165.592 125.237 164.979 123.512C164.365 121.787 163.685 108.705 163.685 108.705C163.685 108.705 163.375 99.4512 162.761 97.5782C162.192 95.8569 161.73 87.1766 161.653 85.8107C161.653 85.6923 161.653 85.6294 161.653 85.6294L162.266 74.8947L165.718 74.0322L173.722 76.9935L174.831 83.3344L175.264 85.8107L175.448 86.8657L176.805 119.684Z" fill="#BE6F72"/>
<path d="M213.624 40.4475H201.003V60.1512H213.624V40.4475Z" fill="#3E373A"/>
<path opacity="0.1" d="M213.624 40.4475H201.003V60.1512H213.624V40.4475Z" fill="black"/>
<path d="M174.587 134.431C174.587 134.431 170.274 139.181 171.875 140.043C173.475 140.905 183.826 157.07 183.826 157.07C183.826 157.07 217.826 161.264 224.237 154.972C230.649 148.679 230.52 137.437 230.52 137.437C230.52 137.437 225.368 138.548 224.807 137.944C224.245 137.341 221.159 134.431 221.159 134.431C221.159 134.431 177.544 131.781 174.587 134.431Z" fill="#4B4B5B"/>
<path opacity="0.02" d="M174.587 134.431C174.587 134.431 170.274 139.181 171.875 140.043C173.475 140.905 183.826 157.07 183.826 157.07C183.826 157.07 217.826 161.264 224.237 154.972C230.649 148.679 230.52 137.437 230.52 137.437C230.52 137.437 225.368 138.548 224.807 137.944C224.245 137.341 221.159 134.431 221.159 134.431C221.159 134.431 177.544 131.781 174.587 134.431Z" fill="black"/>
<path d="M235.794 74.4023L224.707 83.2862L221.355 83.5305L220.124 83.6193L199.455 85.137L178.02 83.5675L174.831 83.3343L170.766 83.0382L162.266 74.8947C162.266 74.8947 168.282 68.439 173.552 64.0823C175.629 62.361 177.592 60.9692 179.022 60.4214L179.266 60.3362C180.165 59.9848 180.969 59.424 181.609 58.7001C185.77 54.4026 189.617 43.7974 189.617 43.7974C189.617 43.7974 207.973 34.2991 205.756 46.7587C203.538 59.2183 214.008 56.1386 214.008 56.1386L217.46 57.7155L218.823 58.3411L222.301 59.9365L230.147 63.5418C236.304 66.381 235.794 74.4023 235.794 74.4023Z" fill="#BE6F72"/>
<path opacity="0.1" d="M198.594 53.9436C207.711 53.9436 215.102 46.5406 215.102 37.4085C215.102 28.2764 207.711 20.8734 198.594 20.8734C189.477 20.8734 182.086 28.2764 182.086 37.4085C182.086 46.5406 189.477 53.9436 198.594 53.9436Z" fill="black"/>
<path opacity="0.1" d="M235.819 86.1808H161.653C161.653 86.0623 161.653 85.9994 161.653 85.9994L162.266 75.2648C162.266 75.2648 168.283 68.8092 173.552 64.4524L220.117 62.6016L222.283 60.314L230.128 63.9193C236.289 66.7548 235.794 74.7761 235.794 74.7761C235.794 74.7761 236.636 84.0709 235.819 86.1808Z" fill="black"/>
<path d="M235.819 85.8107H161.653C161.653 85.6922 161.653 85.6293 161.653 85.6293L162.266 74.8946C162.266 74.8946 168.283 68.439 173.552 64.0822L220.117 62.2314L222.283 59.9438L230.128 63.5492C236.289 66.3846 235.794 74.406 235.794 74.406C235.794 74.406 236.636 83.7008 235.819 85.8107Z" fill="#E7C7CA"/>
<path opacity="0.1" d="M186.705 55.7093C186.705 55.7093 198.405 70.6416 213.99 55.402C229.574 40.1625 215.715 89.3939 215.715 89.3939L182.086 93.3917L186.705 55.7093Z" fill="black"/>
<path d="M186.705 56.4495C186.705 56.4495 198.405 71.3818 213.99 56.1423C229.574 40.9028 215.715 90.1342 215.715 90.1342L182.086 94.1319L186.705 56.4495Z" fill="#E7C7CA"/>
<path opacity="0.1" d="M218.805 59.0702L220.043 77.9818L221.37 84.2745L222.382 89.0866C222.382 89.0866 224.969 126.103 224.23 127.953C223.491 129.804 224.6 131.285 224.755 132.27C224.91 133.254 224.6 135.727 224.722 136.837C224.844 137.948 224.722 138.44 221.891 138.044C219.06 137.648 215.113 136.959 215.113 136.959C215.113 136.959 205.135 137.7 201.687 136.467C198.239 135.235 191.709 135.231 191.709 135.231C191.709 135.231 181.853 135.479 178.652 135.109C175.452 134.739 173.722 139.058 171.631 137.822C169.539 136.586 174.092 124.622 175.57 121.165C177.048 117.707 173.6 108.949 173.6 108.949L178.035 84.3078L179.022 78.7221V61.1616L179.266 61.0765C180.165 60.7251 180.969 60.1643 181.609 59.4404L182.717 77.1119L217.456 78.3482V58.4595" fill="black"/>
<path d="M218.805 58.33L220.043 77.2415L221.37 83.5343L222.382 88.3463C222.382 88.3463 224.969 125.362 224.23 127.213C223.491 129.064 224.6 130.545 224.755 131.529C224.91 132.514 224.6 134.987 224.722 136.097C224.844 137.208 224.722 137.7 221.891 137.304C219.06 136.908 215.113 136.219 215.113 136.219C215.113 136.219 205.135 136.96 201.687 135.727C198.239 134.494 191.709 134.491 191.709 134.491C191.709 134.491 181.853 134.739 178.652 134.368C175.452 133.998 173.722 138.318 171.631 137.082C169.539 135.845 174.092 123.882 175.57 120.424C177.048 116.967 173.6 108.209 173.6 108.209L178.035 83.5676L179.022 77.9818V60.4214L179.266 60.3363C180.165 59.9849 180.969 59.4241 181.609 58.7002L182.717 76.3716L217.456 77.608V57.7192" fill="#E7C7CA"/>
<path opacity="0.1" d="M222.8 18.8635C222.589 18.0898 222.297 17.2866 221.691 16.7683C221.112 16.3521 220.444 16.0782 219.74 15.9688C218.054 15.5248 216.341 15.1959 214.61 14.9842C214.363 14.1622 213.989 13.3841 213.502 12.6781C209.88 7.55504 204.521 2.72444 198.217 1.63247C194.917 1.05872 191.092 1.57324 188.978 4.17917C187.817 5.61169 187.319 7.51062 186.147 8.91723C183.889 11.649 179.813 11.9859 176.967 14.0995C175.448 15.21 174.347 16.8202 173.272 18.3822C172.107 20.0739 170.91 21.8358 170.541 23.8569C169.801 27.8954 172.466 31.7451 172.957 35.8205C174.066 44.9376 164.31 53.0256 166.154 62.0205C167.229 67.2657 172.067 70.9599 177.071 72.8329C178.833 73.4955 180.848 74.1544 181.672 75.8497C182.041 76.59 182.104 77.4451 182.451 78.1928C183.619 80.6877 187.459 80.784 189.521 78.9665C191.583 77.149 192.234 74.2099 192.478 71.467C193.468 59.4886 188.678 47.6546 189.237 35.6465C189.403 32.0153 190.423 27.8954 193.671 26.2519C198.043 24.0309 203.302 27.7325 208.114 27.0255C210.391 32.5747 210.874 38.6992 209.496 44.5378C208.731 47.7323 207.408 50.8305 207.312 54.125C207.168 59.1407 209.869 63.7232 212.205 68.1578C212.706 68.987 213.041 69.9061 213.191 70.8636C213.228 71.8352 213.048 72.8027 212.663 73.6954C211.344 77.2526 209.067 80.5545 208.808 84.3412C208.733 84.7832 208.832 85.2375 209.086 85.6072C209.346 85.8539 209.682 86.0052 210.039 86.0365C214.03 86.7213 217.482 83.1789 219.43 79.6217C221.601 75.6927 222.866 71.3265 223.132 66.8437C223.535 59.3072 220.838 51.8929 221.004 44.349C221.196 35.7724 225.065 27.1365 222.8 18.8635Z" fill="black"/>
<path d="M223.169 18.4932C222.959 17.7196 222.667 16.9163 222.061 16.3981C221.482 15.9819 220.814 15.708 220.11 15.5986C218.424 15.1546 216.71 14.8256 214.98 14.6139C214.733 13.792 214.359 13.0139 213.871 12.3078C210.25 7.1848 204.891 2.3542 198.586 1.26223C195.286 0.688478 191.461 1.203 189.347 3.80893C188.187 5.24146 187.688 7.14038 186.517 8.54699C184.259 11.2788 180.182 11.6156 177.337 13.7292C175.818 14.8397 174.717 16.4499 173.641 18.012C172.477 19.7036 171.28 21.4656 170.91 23.4867C170.171 27.5251 172.835 31.3748 173.327 35.4503C174.436 44.5673 164.679 52.6554 166.523 61.6503C167.599 66.8954 172.436 70.5896 177.44 72.4627C179.203 73.1252 181.217 73.7841 182.041 75.4795C182.411 76.2198 182.474 77.0749 182.821 77.8226C183.989 80.3175 187.828 80.4137 189.891 78.5962C191.953 76.7787 192.603 73.8397 192.847 71.0968C193.838 59.1184 189.048 47.2843 189.606 35.2763C189.772 31.645 190.792 27.5251 194.041 25.8816C198.413 23.6607 203.671 27.3623 208.483 26.6553C210.76 32.2045 211.243 38.3289 209.865 44.1676C209.1 47.3621 207.777 50.4603 207.681 53.7547C207.537 58.7704 210.239 63.353 212.574 67.7875C213.075 68.6168 213.411 69.5358 213.561 70.4934C213.598 71.465 213.417 72.4325 213.032 73.3251C211.713 76.8824 209.437 80.1842 209.178 83.971C209.102 84.413 209.202 84.8672 209.455 85.2369C209.715 85.4837 210.052 85.635 210.409 85.6663C214.4 86.3511 217.852 82.8087 219.799 79.2514C221.97 75.3225 223.236 70.9563 223.502 66.4735C223.905 58.937 221.207 51.5227 221.373 43.9788C221.566 35.4022 225.435 26.7663 223.169 18.4932Z" fill="#3E373A"/>
<path d="M215.006 182.389L229.666 182.859L227.564 171.969L216.333 173.039L215.006 182.389Z" fill="#C3C7D9"/>
<path d="M260.432 156.578C259.445 157.811 255.628 160.032 255.258 160.772C254.889 161.512 250.332 163.733 247.989 164.103C245.646 164.474 238.259 166.08 236.902 166.943C235.93 167.564 228.129 169.534 223.003 170.626C221.615 170.955 220.21 171.208 218.794 171.384C216.576 171.507 192.311 163.241 192.311 163.241L196.99 158.429L197.249 158.34C198.572 157.892 204.684 155.823 208.077 154.838C211.898 153.728 216.333 149.164 216.333 149.164C216.333 149.164 222.859 146.943 223.724 146.695C224.589 146.447 221.506 138.059 221.506 138.059C221.506 138.059 235.672 136.09 241.215 134.42C246.758 132.751 259.571 133.369 261.91 139.91C264.25 146.45 261.434 155.345 260.432 156.578Z" fill="#4B4B5B"/>
<path d="M195.881 177.429C195.881 177.429 193.05 180.391 190.216 180.146C187.381 179.902 177.47 180.887 177.47 180.887C175.674 181.604 173.992 182.581 172.477 183.785C170.16 185.614 168.929 184.155 168.7 183.844L168.659 183.785C167.425 187.675 164.594 184.71 164.594 184.71C164.594 184.71 165.825 172.865 165.448 171.385C165.071 169.904 167.883 167.361 167.883 167.361L171.209 166.513L179.635 164.351L191.709 168.545L195.881 177.429Z" fill="#E7C7CA"/>
<path opacity="0.1" d="M171.195 166.513L168.7 183.844L168.659 183.785C167.425 187.675 164.594 184.71 164.594 184.71C164.594 184.71 165.825 172.865 165.448 171.385C165.071 169.904 167.883 167.361 167.883 167.361L171.195 166.513Z" fill="black"/>
<path opacity="0.1" d="M188.63 117.215C188.63 117.215 195.157 119.436 200.826 117.215H188.63Z" fill="black"/>
<path opacity="0.1" d="M210.911 121.413C210.911 121.413 213.62 122.768 215.715 121.413H210.911Z" fill="black"/>
<path opacity="0.1" d="M210.911 124.626C210.911 124.626 215.468 125.237 216.333 124.004L210.911 124.626Z" fill="black"/>
<path opacity="0.1" d="M209.433 131.529C209.433 131.529 217.992 130.419 220.117 128.938L209.433 131.529Z" fill="black"/>
<path opacity="0.1" d="M183.316 128.938C183.316 128.938 188.12 131.651 191.694 131.529L183.316 128.938Z" fill="black"/>
<path opacity="0.1" d="M222.999 170.626C221.611 170.955 220.206 171.208 218.79 171.384C216.573 171.507 192.308 163.241 192.308 163.241L196.986 158.429L197.245 158.34C197.984 158.862 198.59 159.31 199.022 159.65C201.059 161.257 203.025 159.158 203.764 159.158C204.503 159.158 210.907 164.462 210.907 164.462C210.907 164.462 216.82 165.821 217.807 167.054C218.794 168.286 222.242 168.042 222.855 168.904C223.04 169.171 223.062 169.826 222.999 170.626Z" fill="black"/>
<path d="M177.47 138.562C177.47 138.562 171.49 138.907 168.042 137.452C164.594 135.997 153.138 132.64 149.812 134.998C146.486 137.356 138.478 139.44 142.173 148.82C145.869 158.199 147.595 158.444 147.595 158.444C148.738 159.303 149.736 160.34 150.551 161.516C151.66 163.245 162.007 167.191 164.594 167.191C167.181 167.191 171.738 167.191 178.142 171.633C184.547 176.074 190.338 176.57 190.338 176.57C190.338 176.57 198.468 179.902 201 180.642C203.531 181.383 215.098 184.588 217.811 183.604C220.523 182.619 222.246 176.445 222.246 176.445C222.246 176.445 223.476 170.892 222.859 170.03C222.242 169.167 218.794 169.412 217.811 168.179C216.828 166.946 210.911 165.588 210.911 165.588C210.911 165.588 204.521 160.28 203.782 160.28C203.043 160.28 201.077 162.375 199.041 160.772C194.985 157.763 190.723 155.042 186.287 152.628C181.609 150.16 177.47 138.562 177.47 138.562Z" fill="#4B4B5B"/>
<path opacity="0.1" d="M165.448 142.142C166.513 141.924 167.613 141.955 168.664 142.233C169.714 142.511 170.687 143.029 171.505 143.745C174.462 146.214 184.41 151.17 184.41 151.17" fill="black"/>
<path opacity="0.1" d="M239.367 141.986C239.367 141.986 226.185 143.985 223.724 146.698L239.367 141.986Z" fill="black"/>
<path d="M254.519 182.859H253.939C251.855 182.785 244.792 182.563 243.432 182.859C241.832 183.23 220.642 182.859 220.642 182.859L224.784 181.997C224.784 181.997 223.247 176.6 224.223 176.152C224.223 176.152 218.679 172.495 222.859 170.026C227.039 167.557 231.544 168.597 231.544 168.597L242.035 165.036L244.05 164.351C244.05 164.351 255.875 164.97 259.076 173.113C262.276 181.257 254.519 182.859 254.519 182.859Z" fill="#E7C7CA"/>
<path opacity="0.1" d="M254.519 182.859H253.939C257.38 180.017 265.162 171.362 242.035 165.055L244.05 164.37C244.05 164.37 255.875 164.988 259.076 173.132C262.276 181.275 254.519 182.859 254.519 182.859Z" fill="black"/>
<path d="M232.778 173.265C233.135 173.265 233.425 172.975 233.425 172.617C233.425 172.259 233.135 171.969 232.778 171.969C232.421 171.969 232.131 172.259 232.131 172.617C232.131 172.975 232.421 173.265 232.778 173.265Z" fill="#4B4B5B"/>
<path d="M229.02 174.335C229.377 174.335 229.666 174.045 229.666 173.687C229.666 173.329 229.377 173.039 229.02 173.039C228.662 173.039 228.373 173.329 228.373 173.687C228.373 174.045 228.662 174.335 229.02 174.335Z" fill="#4B4B5B"/>
<g opacity="0.1">
<path opacity="0.1" d="M210.708 36.7976C210.851 32.7262 210.128 28.6707 208.587 24.9007C203.782 25.6188 198.52 21.9061 194.144 24.127C190.907 25.7705 189.891 29.8904 189.71 33.5217C189.665 34.4804 189.658 35.4391 189.676 36.3979C189.676 36.0573 189.676 35.7131 189.71 35.3725C189.88 31.7412 190.896 27.6213 194.144 25.9778C198.52 23.7569 203.775 27.4585 208.587 26.7515C209.892 29.9449 210.611 33.3483 210.708 36.7976Z" fill="black"/>
<path opacity="0.1" d="M173.479 36.1203C173.542 35.3137 173.526 34.5028 173.43 33.6994C173.039 30.442 171.261 27.3289 170.94 24.153C170.526 27.9841 172.961 31.6635 173.43 35.5502C173.479 35.7501 173.479 35.9278 173.479 36.1203Z" fill="black"/>
<path opacity="0.1" d="M192.951 69.3386C192.722 72.0852 192.075 75.0205 189.994 76.8417C187.914 78.6629 184.081 78.563 182.924 76.0681C182.555 75.3278 182.499 74.4653 182.141 73.725C181.321 72.0296 179.303 71.3708 177.54 70.7082C172.532 68.8315 167.702 65.1558 166.627 59.8958C166.531 59.4193 166.465 58.9371 166.431 58.4521C166.34 59.554 166.406 60.6633 166.627 61.7466C167.702 66.9918 172.54 70.6823 177.54 72.559C179.303 73.2216 181.321 73.8804 182.141 75.5758C182.511 76.3161 182.573 77.1712 182.924 77.9189C184.089 80.4138 187.928 80.51 189.994 78.6925C192.06 76.8751 192.703 73.936 192.951 71.1894C193.063 69.7437 193.101 68.2933 193.065 66.8437C193.065 67.684 193.017 68.5131 192.951 69.3386Z" fill="black"/>
<path opacity="0.1" d="M221.495 42.2243C221.495 42.761 221.495 43.294 221.495 43.8271C221.702 36.9421 224.223 30.02 223.975 23.2794C223.783 29.5129 221.636 35.8871 221.495 42.2243Z" fill="black"/>
<path opacity="0.1" d="M213.565 70.0752C213.656 69.636 213.684 69.1861 213.65 68.7389C213.501 67.7809 213.166 66.8616 212.663 66.033C210.527 61.9612 208.091 57.7932 207.803 53.2736C207.803 53.466 207.777 53.6437 207.774 53.851C207.626 58.863 210.327 63.4493 212.663 67.8838C213.06 68.5706 213.363 69.3076 213.565 70.0752Z" fill="black"/>
<path opacity="0.1" d="M223.62 64.719C223.344 69.2035 222.07 73.5695 219.891 77.4969C217.94 81.0542 214.492 84.5966 210.497 83.9118C210.139 83.8809 209.803 83.7281 209.544 83.4787C209.469 83.3939 209.41 83.2961 209.37 83.19C209.326 83.4787 209.289 83.7711 209.267 84.0673C209.19 84.5081 209.29 84.9614 209.544 85.3295C209.803 85.5789 210.139 85.7317 210.497 85.7626C214.492 86.4474 217.94 82.905 219.891 79.3477C222.07 75.4203 223.344 71.0543 223.62 66.5698C223.665 65.7036 223.668 64.8411 223.642 63.9786C223.635 64.2266 223.635 64.471 223.62 64.719Z" fill="black"/>
</g>
<path opacity="0.1" d="M224.223 176.152C224.223 176.152 233.576 180.083 239.744 171.385" stroke="black" stroke-miterlimit="10"/>
<path opacity="0.1" d="M226.063 183.022C226.063 183.022 233.702 178.047 243.432 182.86" stroke="black" stroke-miterlimit="10"/>
<path opacity="0.1" d="M174.931 181.893C174.931 181.893 178.139 174.646 186.705 180.172" stroke="black" stroke-miterlimit="10"/>
<path opacity="0.1" d="M164.531 74.7096L171.073 68.787C171.073 68.787 196.436 67.1213 197.485 75.7571C197.485 75.7571 206.476 65.5185 225.387 67.7987L233.388 74.1802L211.273 83.9007L189.783 91.3668L173.955 84.2708L164.531 74.7096Z" fill="black"/>
<path d="M164.531 75.0797L171.073 69.1571C171.073 69.1571 196.436 67.4914 197.485 76.1272C197.485 76.1272 206.476 65.8886 225.387 68.1688L233.388 74.5504L211.273 84.2708L189.783 91.7369L173.955 84.6409L164.531 75.0797Z" fill="#D5D6DB"/>
<path opacity="0.1" d="M161.638 75.8201L164.531 110.493L195.205 112.037L193.874 77.5117L193.849 76.9306L161.638 75.8201Z" fill="black"/>
<path d="M161.638 75.0797L164.531 109.753L195.205 111.296L193.874 76.7713L193.849 76.1902L161.638 75.0797Z" fill="#2F80ED"/>
<path opacity="0.1" d="M234.792 75.0797L203.15 79.8326V114.661L234.071 110.186L234.792 75.0797Z" fill="black"/>
<path d="M234.792 74.3394L203.15 79.0922V113.921L234.071 109.445L234.792 74.3394Z" fill="#2F80ED"/>
<path opacity="0.3" d="M227.331 82.8383L210.239 84.7409L210.612 90.5746L227.32 88.746L227.331 82.8383Z" fill="white"/>
<path d="M166.194 128.32L167.935 133.01C167.935 133.01 170.522 135.231 173.353 134.12C176.184 133.01 178.652 132.458 179.883 131.378C181.114 130.297 182.839 124.866 182.839 124.866C182.839 124.866 184.565 118.944 186.287 117.463C188.01 115.983 192.57 95.583 186.287 97.5781C180.005 99.5733 175.201 118.081 175.201 118.081C175.201 118.081 174.092 119.436 172.492 119.562C170.892 119.688 167.687 119.314 167.07 120.672C166.453 122.031 164.347 125.607 166.194 128.32Z" fill="#BE6F72"/>
<path opacity="0.1" d="M203.15 79.8289C201.53 80.1946 199.847 80.1755 198.236 79.7731C196.625 79.3707 195.13 78.5963 193.871 77.5117L195.205 112.033C195.205 112.033 198.346 115.438 203.15 114.661V79.8289Z" fill="black"/>
<path d="M203.15 79.0886C201.53 79.4542 199.847 79.4351 198.236 79.0327C196.625 78.6304 195.13 77.8559 193.871 76.7714L195.205 111.293C195.205 111.293 198.346 114.698 203.15 113.921V79.0886Z" fill="#2F80ED"/>
<path opacity="0.1" d="M203.15 79.0886C201.53 79.4542 199.847 79.4351 198.236 79.0327C196.625 78.6304 195.13 77.8559 193.871 76.7714L195.205 111.293C195.205 111.293 198.346 114.698 203.15 113.921V79.0886Z" fill="black"/>
<path opacity="0.1" d="M203.89 75.1981C203.89 75.1981 216.761 71.2559 220.117 71.8112L203.89 75.1981Z" fill="black"/>
<path opacity="0.1" d="M189.491 73.4769C189.491 73.4769 177.015 70.5157 174.931 71.3559L189.491 73.4769Z" fill="black"/>
<path opacity="0.1" d="M212.005 75.6905C212.005 75.6905 220.612 72.5293 223.724 74.0322L212.005 75.6905Z" fill="black"/>
<path opacity="0.1" d="M207.67 154.99C209.004 153.987 210.424 153.104 211.913 152.351C214.13 151.281 218.195 148.505 218.195 148.505" fill="black"/>
<path opacity="0.1" d="M174.931 117.215C174.931 117.215 169.532 121.639 167.909 122.027C166.287 122.416 165.285 125.866 165.285 125.866" fill="black"/>
<path d="M231.618 127.661L229.895 132.362C229.895 132.362 227.309 134.583 224.474 133.473C221.639 132.362 219.178 131.811 217.944 130.73C216.71 129.649 214.987 124.219 214.987 124.219C214.987 124.219 213.265 118.296 211.539 116.815C209.814 115.335 205.257 94.9351 211.539 96.9303C217.822 98.9255 222.626 117.434 222.626 117.434C222.626 117.434 223.735 118.788 225.335 118.914C226.935 119.04 230.139 118.666 230.757 120.025C231.374 121.383 233.465 124.959 231.618 127.661Z" fill="#BE6F72"/>
<path opacity="0.1" d="M228.598 119.014C228.598 119.014 232.128 121.287 232.113 124.004L228.598 119.014Z" fill="black"/>
<path d="M198.653 53.1329C207.77 53.1329 215.161 45.7299 215.161 36.5978C215.161 27.4658 207.77 20.0627 198.653 20.0627C189.536 20.0627 182.145 27.4658 182.145 36.5978C182.145 45.7299 189.536 53.1329 198.653 53.1329Z" fill="#BE6F72"/>
<path d="M188.287 32.1596C190.29 31.845 192.045 30.679 193.959 30.009C198.243 28.5024 202.98 29.5352 207.315 30.8936C208.978 31.4156 210.667 32.0041 212.412 32.0041C214.156 32.0041 216.007 31.2897 216.898 29.7832C217.718 28.3988 217.56 26.5998 216.868 25.145C216.177 23.6903 215.021 22.5206 213.853 21.4175C210.009 17.7825 205.242 14.3845 199.969 14.7546C197.847 14.9064 195.818 15.6652 193.867 16.5055C191.41 17.566 189.019 18.7724 186.705 20.1183C184.927 21.151 181.635 22.5317 180.611 24.4195C178.283 28.6727 184.665 32.7296 188.287 32.1596Z" fill="#3E373A"/>
<path opacity="0.1" d="M216.898 28.2284C216.007 29.735 214.156 30.4494 212.412 30.4494C210.667 30.4494 208.978 29.883 207.312 29.3611C202.977 28.0026 198.243 26.9662 193.956 28.4764C192.045 29.1464 190.286 30.3272 188.283 30.6234C185.364 31.0824 180.663 28.5357 180.153 25.2968C179.58 29.0391 185.031 32.2447 188.283 31.7338C190.286 31.4192 192.045 30.2532 193.956 29.5869C198.243 28.0767 202.977 29.1131 207.312 30.4716C208.978 30.9935 210.664 31.5821 212.412 31.5599C214.16 31.5377 216.007 30.8492 216.898 29.3389C217.36 28.5173 217.541 27.5673 217.415 26.633C217.358 27.1955 217.181 27.7394 216.898 28.2284Z" fill="black"/>
<path d="M350.867 228.837C350.867 228.837 353.058 231.706 349.854 236.04C346.65 240.375 344.012 244.032 345.076 246.734C345.076 246.734 349.91 238.687 353.842 238.572C357.774 238.458 355.187 233.675 350.867 228.837Z" fill="#2F80ED"/>
<path opacity="0.1" d="M350.867 228.837C351.058 229.114 351.208 229.417 351.314 229.737C355.15 234.253 357.198 238.469 353.506 238.572C350.069 238.672 345.948 244.828 344.961 246.379C344.993 246.504 345.031 246.628 345.076 246.749C345.076 246.749 349.91 238.702 353.842 238.587C357.774 238.472 355.187 233.675 350.867 228.837Z" fill="black"/>
<path d="M354.932 232.494C354.932 233.505 354.818 234.323 354.681 234.323C354.544 234.323 354.426 233.505 354.426 232.494C354.426 231.484 354.566 231.961 354.707 231.961C354.847 231.961 354.932 231.484 354.932 232.494Z" fill="#FFD037"/>
<path d="M356.333 233.701C355.45 234.182 354.677 234.475 354.611 234.353C354.544 234.23 355.206 233.738 356.089 233.242C356.972 232.746 356.625 233.109 356.691 233.242C356.758 233.375 357.22 233.216 356.333 233.701Z" fill="#FFD037"/>
<path d="M339.285 228.837C339.285 228.837 337.093 231.706 340.298 236.04C343.502 240.375 346.14 244.032 345.072 246.734C345.072 246.734 340.242 238.687 336.306 238.572C332.37 238.458 334.976 233.675 339.285 228.837Z" fill="#2F80ED"/>
<path opacity="0.1" d="M339.285 228.837C339.094 229.114 338.944 229.417 338.838 229.737C335.002 234.253 332.954 238.469 336.646 238.572C340.079 238.672 344.204 244.828 345.191 246.379C345.16 246.505 345.12 246.629 345.072 246.749C345.072 246.749 340.242 238.702 336.306 238.587C332.37 238.472 334.976 233.675 339.285 228.837Z" fill="black"/>
<path d="M335.212 232.494C335.212 233.505 335.323 234.323 335.464 234.323C335.604 234.323 335.719 233.505 335.719 232.494C335.719 231.484 335.575 231.961 335.438 231.961C335.301 231.961 335.212 231.484 335.212 232.494Z" fill="#FFD037"/>
<path d="M333.815 233.701C334.699 234.182 335.471 234.475 335.538 234.353C335.604 234.23 334.943 233.738 334.059 233.242C333.176 232.746 333.524 233.109 333.457 233.242C333.39 233.375 332.929 233.216 333.815 233.701Z" fill="#FFD037"/>
<path opacity="0.1" d="M345.076 268.692C357.73 268.692 367.989 267.116 367.989 265.172C367.989 263.228 357.73 261.652 345.076 261.652C332.422 261.652 322.163 263.228 322.163 265.172C322.163 267.116 332.422 268.692 345.076 268.692Z" fill="#2F80ED"/>
<path d="M356.869 242.866L356.758 243.762L356.602 245.028L356.54 245.557L356.384 246.823L356.318 247.353L356.166 248.615L354.411 263.014C354.256 264.299 352.16 265.302 349.629 265.302H340.519C337.988 265.302 335.896 264.299 335.737 263.014L333.982 248.615L333.827 247.353L333.764 246.823L333.609 245.557L333.542 245.028L333.39 243.762L333.28 242.866C333.195 242.126 334.325 241.526 335.759 241.526H354.393C355.823 241.526 356.957 242.137 356.869 242.866Z" fill="#65617D"/>
<path d="M356.758 243.762L356.606 245.028H333.546L333.391 243.762H356.758Z" fill="#9D9CB5"/>
<path d="M356.54 245.557L356.388 246.823H333.764L333.609 245.557H356.54Z" fill="#9D9CB5"/>
<path d="M356.322 247.353L356.166 248.618H333.982L333.83 247.353H356.322Z" fill="#9D9CB5"/>
</g>
<defs>
<linearGradient id="paint0_linear" x1="202.016" y1="185.791" x2="202.016" y2="1.69652e-05" gradientUnits="userSpaceOnUse">
<stop stop-color="#808080" stop-opacity="0.25"/>
<stop offset="0.54" stop-color="#808080" stop-opacity="0.12"/>
<stop offset="1" stop-color="#808080" stop-opacity="0.1"/>
</linearGradient>
<clipPath id="clip0">
<rect width="378" height="301" fill="white"/>
</clipPath>
</defs>
</svg>
