<svg width="24" height="24" viewBox="0 0 24 24" fill="none" xmlns="http://www.w3.org/2000/svg">
<path d="M5.15581 22.8426C5.18289 23.4895 5.71521 24 6.36256 24H17.6381C18.2854 24 18.8178 23.4895 18.8448 22.8426L19.6501 5.84414H4.35059L5.15581 22.8426ZM14.551 10.0663C14.551 9.7954 14.7706 9.57572 15.0416 9.57572H15.8262C16.097 9.57572 16.3168 9.79534 16.3168 10.0663V19.7779C16.3168 20.0488 16.0972 20.2684 15.8262 20.2684H15.0416C14.7707 20.2684 14.551 20.0489 14.551 19.7779V10.0663ZM11.1175 10.0663C11.1175 9.7954 11.3371 9.57572 11.608 9.57572H12.3927C12.6635 9.57572 12.8832 9.79534 12.8832 10.0663V19.7779C12.8832 20.0488 12.6636 20.2684 12.3927 20.2684H11.608C11.3371 20.2684 11.1175 20.0489 11.1175 19.7779V10.0663ZM7.68382 10.0663C7.68382 9.7954 7.90344 9.57572 8.17435 9.57572H8.95907C9.22993 9.57572 9.44961 9.79534 9.44961 10.0663V19.7779C9.44961 20.0488 9.22999 20.2684 8.95907 20.2684H8.17435C7.9035 20.2684 7.68382 20.0489 7.68382 19.7779V10.0663Z" fill="#D64949"/>
<path d="M20.1859 1.23636H14.9841V0.252936C14.9841 0.113278 14.8709 0 14.7312 0H9.2688C9.12914 0 9.01592 0.113278 9.01592 0.252936V1.2363H3.81408C3.39546 1.2363 3.05615 1.57566 3.05615 1.99429V4.37541H20.9439V1.99434C20.9439 1.57572 20.6046 1.23636 20.1859 1.23636Z" fill="#D64949"/>
</svg>
